<svg width="46" height="48" viewBox="0 0 46 48" fill="none" xmlns="http://www.w3.org/2000/svg">
<path d="M40.6942 47.334H40.3935C5.64093 45.2918 0.706591 15.3274 0.0168454 6.18267C-0.0387318 5.47165 0.0435309 4.75642 0.25892 4.07795C0.474308 3.39948 0.818589 2.77111 1.27204 2.22884C1.72549 1.68656 2.27919 1.24105 2.90142 0.917826C3.52365 0.594601 4.20218 0.400014 4.89813 0.345217H14.643C15.3514 0.344516 16.0437 0.561202 16.6302 0.967206C17.2167 1.37321 17.6704 1.94983 17.9326 2.62236L20.6208 9.38152C20.8796 10.0385 20.9439 10.7588 20.8055 11.4528C20.6672 12.1468 20.3323 12.784 19.8426 13.2852L16.0755 17.1708C16.664 20.5879 18.2654 23.7378 20.6631 26.1944C23.0607 28.651 26.139 30.2957 29.4814 30.906L33.3192 27.0204C33.817 26.5255 34.4465 26.1913 35.129 26.0595C35.8114 25.9278 36.5168 26.0042 37.157 26.2794L43.8246 29.0084C44.4728 29.2847 45.0258 29.7519 45.4132 30.3506C45.8006 30.9492 46.0049 31.6522 45.9999 32.3699V41.9122C45.9999 43.3502 45.4409 44.7292 44.4459 45.746C43.4509 46.7628 42.1013 47.334 40.6942 47.334ZM5.32258 3.95974C4.85353 3.95974 4.40368 4.15015 4.07201 4.48907C3.74034 4.828 3.554 5.28768 3.554 5.767V5.91158C4.36755 16.6106 9.58486 41.9122 40.5881 43.7195C40.8204 43.7341 41.0533 43.7018 41.2734 43.6243C41.4935 43.5468 41.6964 43.4256 41.8706 43.2678C42.0448 43.11 42.1867 42.9186 42.2883 42.7046C42.39 42.4905 42.4492 42.2581 42.4628 42.0206V32.3699L35.7952 29.6409L30.7194 34.7916L29.8705 34.6832C14.4838 32.7132 12.3969 16.9901 12.3969 16.8274L12.2908 15.9599L17.3136 10.7731L14.6607 3.95974H5.32258Z" fill="#FB5E01"/>
</svg>
