<svg width="41" height="54" viewBox="0 0 41 54" fill="none" xmlns="http://www.w3.org/2000/svg">
<path d="M20.5 2.31934C10.2865 2.31934 2 9.549 2 18.4533C2 28.699 14.3333 44.9354 18.862 50.5434C19.05 50.7801 19.2963 50.9728 19.581 51.1056C19.8657 51.2384 20.1806 51.3076 20.5 51.3076C20.8194 51.3076 21.1343 51.2384 21.419 51.1056C21.7037 50.9728 21.95 50.7801 22.138 50.5434C26.6667 44.9377 39 28.7072 39 18.4533C39 9.549 30.7135 2.31934 20.5 2.31934Z" stroke="#FB5E01" stroke-width="4" stroke-linecap="round" stroke-linejoin="round"/>
<path d="M20.5 25.3145C24.0899 25.3145 27 22.6289 27 19.3159C27 16.003 24.0899 13.3174 20.5 13.3174C16.9101 13.3174 14 16.003 14 19.3159C14 22.6289 16.9101 25.3145 20.5 25.3145Z" stroke="#FB5E01" stroke-width="4" stroke-linecap="round" stroke-linejoin="round"/>
</svg>
