<svg width="49" height="40" viewBox="0 0 49 40" fill="none" xmlns="http://www.w3.org/2000/svg">
<path d="M44.4062 39.3588H4.59375C2.05188 39.3588 0 37.1819 0 34.485V5.242C0 2.54514 2.05188 0.368164 4.59375 0.368164H44.4062C46.9481 0.368164 49 2.54514 49 5.242V34.485C49 37.1819 46.9481 39.3588 44.4062 39.3588ZM4.59375 3.61739C3.73625 3.61739 3.0625 4.33222 3.0625 5.242V34.485C3.0625 35.3948 3.73625 36.1096 4.59375 36.1096H44.4062C45.2637 36.1096 45.9375 35.3948 45.9375 34.485V5.242C45.9375 4.33222 45.2637 3.61739 44.4062 3.61739H4.59375Z" fill="#FB5E01"/>
<path d="M24.5 28.3282C22.3145 28.3282 20.3163 27.3986 18.8176 25.7052L2.42607 7.17774C1.83286 6.51367 1.86408 5.45116 2.48852 4.8203C3.11296 4.18944 4.11206 4.22264 4.70528 4.88671L21.0968 23.4142C22.8765 25.4396 26.1235 25.4396 27.9032 23.4142L44.2947 4.91991C44.8879 4.25584 45.887 4.22264 46.5115 4.8535C47.1359 5.48437 47.1671 6.54687 46.5739 7.21094L30.1824 25.7384C28.6837 27.4318 26.6855 28.3615 24.5 28.3615V28.3282Z" fill="#FB5E01"/>
</svg>
