<svg width="47" height="55" viewBox="0 0 47 55" fill="none" xmlns="http://www.w3.org/2000/svg">
<path fill-rule="evenodd" clip-rule="evenodd" d="M0 3.92917C0 3.82456 0.0035714 3.71995 0.0107143 3.6237L20.1179 27.1778L0.0107143 50.736C0.00368082 50.6344 0.000106584 50.5325 0 50.4306V3.92917ZM4.49286 54.3598C4.85 54.2803 5.20714 54.138 5.55714 53.9329L30.3536 39.1745L23.9036 31.6174L4.49286 54.3598ZM27.6929 27.1778L35.3786 36.1826L44.6143 30.6843C47.1821 29.157 47.1821 25.2027 44.6143 23.6754L35.375 18.1771L27.6929 27.1778ZM30.3536 15.1852L5.55714 0.42681C5.22127 0.226616 4.86298 0.0829303 4.49286 0L23.9036 22.7381L30.3536 15.1852Z" fill="white"/>
</svg>
